<svg width="931" height="775" viewBox="0 0 931 775" fill="none" xmlns="http://www.w3.org/2000/svg">
<path d="M112.593 144.451C63.0665 106.452 39.3661 80.7115 0 31.6326L25.3118 78.8305C25.3118 78.8305 84.8136 175.187 135.169 226.541C192.53 285.041 303.555 351.979 303.555 351.979L540.141 456.036L779.972 497.579L907.913 501.893L960.267 473.816L870.41 306.264L683.787 318.227C555.278 313.844 479.619 301.261 339.964 265.604C246.265 235.198 195.631 211.606 112.593 144.451Z" fill="#585A0F" fill-opacity="0.37"/>
<path d="M153.254 115.002C103.727 77.0033 80.0269 51.2626 40.6608 2.18372L65.9726 49.3816C65.9726 49.3816 125.474 145.738 175.83 197.093C233.191 255.593 344.216 322.531 344.216 322.531L580.802 426.587L820.633 468.131L948.574 472.444L1000.93 444.367L911.07 276.815L724.448 288.778C595.939 284.395 520.28 271.812 380.625 236.155C286.926 205.749 236.292 182.157 153.254 115.002Z" fill="#F6FF00" fill-opacity="0.23"/>
</svg>
